<svg xmlns="http://www.w3.org/2000/svg" width="15" height="15" viewBox="0 0 15 15">
    <path fill="#b2b2b2" d="M7.028 12.906l.327-.276v7.745A.625.625 0 0 0 7.98 21h11.04a.625.625 0 0 0 .625-.625V12.63l.327.276a.625.625 0 0 0 .806-.955l-3-2.533V7.039a.625.625 0 1 0-1.25 0v1.324L13.9 6.147a.625.625 0 0 0-.806 0l-6.875 5.8a.625.625 0 1 0 .806.955zM12.1 19.75v-4.512h2.8v4.512zm1.4-12.307l4.895 4.132v8.175h-2.248v-5.137a.625.625 0 0 0-.625-.625h-4.044a.625.625 0 0 0-.625.625v5.137H8.605v-8.175z" transform="translate(-6 -6)"/>
</svg>
